<?xml version="1.0" encoding="UTF-8" standalone="no"?>
<!-- Created with Inkscape (http://www.inkscape.org/) -->

<svg
   xmlns:dc="http://purl.org/dc/elements/1.1/"
   xmlns:cc="http://creativecommons.org/ns#"
   xmlns:rdf="http://www.w3.org/1999/02/22-rdf-syntax-ns#"
   xmlns:svg="http://www.w3.org/2000/svg"
   xmlns="http://www.w3.org/2000/svg"
   xmlns:sodipodi="http://sodipodi.sourceforge.net/DTD/sodipodi-0.dtd"
   xmlns:inkscape="http://www.inkscape.org/namespaces/inkscape"
   width="4096"
   height="2304"
   viewBox="0 0 1083.7333 609.6"
   version="1.1"
   id="svg8"
   inkscape:version="0.92.4 (5da689c313, 2019-01-14)"
   sodipodi:docname="Please_Wait.svg">
  <title
     id="title19">Please Wait</title>
  <defs
     id="defs2" />
  <sodipodi:namedview
     id="base"
     pagecolor="#ffffff"
     bordercolor="#666666"
     borderopacity="1.0"
     inkscape:pageopacity="0.0"
     inkscape:pageshadow="2"
     inkscape:zoom="0.36485571"
     inkscape:cx="2054.6364"
     inkscape:cy="1145.5904"
     inkscape:document-units="px"
     inkscape:current-layer="layer1"
     showgrid="false"
     borderlayer="true"
     units="px"
     inkscape:window-width="1920"
     inkscape:window-height="1017"
     inkscape:window-x="-8"
     inkscape:window-y="-8"
     inkscape:window-maximized="1" />
  <metadata
     id="metadata5">
    <rdf:RDF>
      <cc:Work
         rdf:about="">
        <dc:format>image/svg+xml</dc:format>
        <dc:type
           rdf:resource="http://purl.org/dc/dcmitype/StillImage" />
        <dc:title>Please Wait</dc:title>
        <dc:creator>
          <cc:Agent>
            <dc:title>Stuart &quot;Sslaxx&quot; Moore</dc:title>
          </cc:Agent>
        </dc:creator>
        <cc:license
           rdf:resource="http://creativecommons.org/publicdomain/zero/1.0/" />
      </cc:Work>
      <cc:License
         rdf:about="http://creativecommons.org/publicdomain/zero/1.0/">
        <cc:permits
           rdf:resource="http://creativecommons.org/ns#Reproduction" />
        <cc:permits
           rdf:resource="http://creativecommons.org/ns#Distribution" />
        <cc:permits
           rdf:resource="http://creativecommons.org/ns#DerivativeWorks" />
      </cc:License>
    </rdf:RDF>
  </metadata>
  <g
     inkscape:label="Layer 1"
     inkscape:groupmode="layer"
     id="layer1"
     transform="translate(0,312.6)">
    <rect
       style="opacity:1;fill:#000000;fill-opacity:1;stroke:none;stroke-width:3.51111269;stroke-miterlimit:4;stroke-dasharray:none;stroke-opacity:1"
       id="rect10"
       width="1111.25"
       height="648.22919"
       x="-13.758342"
       y="-331.91461" />
    <g
       aria-label="PLEASE WAIT"
       style="font-style:normal;font-variant:normal;font-weight:bold;font-stretch:normal;font-size:72.39987946px;line-height:1.25;font-family:'Noto Sans';-inkscape-font-specification:'Noto Sans, Bold';font-variant-ligatures:normal;font-variant-caps:normal;font-variant-numeric:normal;font-feature-settings:normal;text-align:center;letter-spacing:0px;word-spacing:0px;writing-mode:lr-tb;text-anchor:middle;fill:#ffffff;fill-opacity:1;stroke:none;stroke-width:4.52499247"
       id="text819"
       transform="matrix(3.9923859,0,0,3.9923859,1.031467,-889.31877)">
      <path
         d="m 28.707946,150.06531 q 9.991184,0 14.552376,4.34399 4.633592,4.27159 4.633592,11.80118 0,4.56119 -1.882397,8.47078 -1.882396,3.9096 -6.298789,6.29879 -4.343993,2.3892 -11.87358,2.3892 h -4.705992 v 18.38957 H 12.200774 v -51.69351 z m -0.579199,8.97758 h -4.995591 v 15.34878 h 3.619993 q 4.633593,0 7.312388,-1.81 2.751196,-1.8824 2.751196,-6.00919 0,-7.52959 -8.687986,-7.52959 z"
         style="font-style:normal;font-variant:normal;font-weight:bold;font-stretch:normal;font-size:72.39987946px;font-family:'Noto Sans';-inkscape-font-specification:'Noto Sans, Bold';font-variant-ligatures:normal;font-variant-caps:normal;font-variant-numeric:normal;font-feature-settings:normal;text-align:center;writing-mode:lr-tb;text-anchor:middle;fill:#ffffff;fill-opacity:1;stroke-width:4.52499247"
         id="path823"
         inkscape:connector-curvature="0" />
      <path
         d="m 57.733511,201.75882 v -51.69351 h 10.932382 v 42.64352 h 20.995965 v 9.04999 z"
         style="font-style:normal;font-variant:normal;font-weight:bold;font-stretch:normal;font-size:72.39987946px;font-family:'Noto Sans';-inkscape-font-specification:'Noto Sans, Bold';font-variant-ligatures:normal;font-variant-caps:normal;font-variant-numeric:normal;font-feature-settings:normal;text-align:center;writing-mode:lr-tb;text-anchor:middle;fill:#ffffff;fill-opacity:1;stroke-width:4.52499247"
         id="path825"
         inkscape:connector-curvature="0" />
      <path
         d="M 128.3562,201.75882 H 98.599852 V 150.06531 H 128.3562 v 8.97758 h -18.82397 v 11.36678 H 127.053 v 8.97759 h -17.52077 v 13.32157 h 18.82397 z"
         style="font-style:normal;font-variant:normal;font-weight:bold;font-stretch:normal;font-size:72.39987946px;font-family:'Noto Sans';-inkscape-font-specification:'Noto Sans, Bold';font-variant-ligatures:normal;font-variant-caps:normal;font-variant-numeric:normal;font-feature-settings:normal;text-align:center;writing-mode:lr-tb;text-anchor:middle;fill:#ffffff;fill-opacity:1;stroke-width:4.52499247"
         id="path827"
         inkscape:connector-curvature="0" />
      <path
         d="m 170.82213,201.75882 -3.7648,-12.30798 h -18.82397 l -3.76479,12.30798 h -11.80118 l 18.24477,-51.91071 h 13.39398 l 18.31717,51.91071 z m -6.37119,-21.50276 -3.7648,-12.01838 q -0.362,-1.2308 -0.9412,-3.1132 -0.57919,-1.8824 -1.15839,-3.83719 -0.5792,-1.9548 -0.9412,-3.4028 -0.362,1.448 -1.0136,3.62 -0.5792,2.09959 -1.1584,4.05439 -0.5068,1.8824 -0.7964,2.6788 l -3.69239,12.01838 z"
         style="font-style:normal;font-variant:normal;font-weight:bold;font-stretch:normal;font-size:72.39987946px;font-family:'Noto Sans';-inkscape-font-specification:'Noto Sans, Bold';font-variant-ligatures:normal;font-variant-caps:normal;font-variant-numeric:normal;font-feature-settings:normal;text-align:center;writing-mode:lr-tb;text-anchor:middle;fill:#ffffff;fill-opacity:1;stroke-width:4.52499247"
         id="path829"
         inkscape:connector-curvature="0" />
      <path
         d="m 219.58005,187.42364 q 0,6.87799 -4.99559,11.00479 -4.92319,4.05439 -14.04558,4.05439 -8.18119,0 -14.62478,-3.1132 v -10.20838 q 3.6924,1.5928 7.60199,2.9684 3.982,1.30319 7.89159,1.30319 4.05439,0 5.71959,-1.52039 1.7376,-1.5928 1.7376,-3.982 0,-1.95479 -1.3756,-3.33039 -1.3032,-1.3756 -3.5476,-2.534 -2.24439,-1.2308 -5.14039,-2.60639 -1.80999,-0.8688 -3.90959,-2.0272 -2.0996,-1.2308 -4.05439,-2.96839 -1.8824,-1.81 -3.1132,-4.344 -1.2308,-2.53399 -1.2308,-6.08159 0,-6.95039 4.706,-10.78758 4.70599,-3.90959 12.81477,-3.90959 4.0544,0 7.67439,0.9412 3.62,0.94119 7.67439,2.67879 l -3.54759,8.54319 q -3.5476,-1.448 -6.37119,-2.2444 -2.8236,-0.7964 -5.79199,-0.7964 -3.1132,0 -4.7784,1.448 -1.66519,1.448 -1.66519,3.76479 0,2.7512 2.46159,4.344 2.4616,1.59279 7.31239,3.90959 3.98199,1.8824 6.73319,3.90959 2.82359,2.0272 4.34399,4.77839 1.5204,2.7512 1.5204,6.80559 z"
         style="font-style:normal;font-variant:normal;font-weight:bold;font-stretch:normal;font-size:72.39987946px;font-family:'Noto Sans';-inkscape-font-specification:'Noto Sans, Bold';font-variant-ligatures:normal;font-variant-caps:normal;font-variant-numeric:normal;font-feature-settings:normal;text-align:center;writing-mode:lr-tb;text-anchor:middle;fill:#ffffff;fill-opacity:1;stroke-width:4.52499247"
         id="path831"
         inkscape:connector-curvature="0" />
      <path
         d="m 258.73255,201.75882 h -29.75636 v -51.69351 h 29.75636 v 8.97758 h -18.82397 v 11.36678 h 17.52077 v 8.97759 h -17.52077 v 13.32157 h 18.82397 z"
         style="font-style:normal;font-variant:normal;font-weight:bold;font-stretch:normal;font-size:72.39987946px;font-family:'Noto Sans';-inkscape-font-specification:'Noto Sans, Bold';font-variant-ligatures:normal;font-variant-caps:normal;font-variant-numeric:normal;font-feature-settings:normal;text-align:center;writing-mode:lr-tb;text-anchor:middle;fill:#ffffff;fill-opacity:1;stroke-width:4.52499247"
         id="path833"
         inkscape:connector-curvature="0" />
      <path
         d="m 110.83486,240.56515 -13.176775,51.69352 h -12.45278 l -7.022788,-27.14996 q -0.2172,-0.79639 -0.579199,-2.38919 -0.2896,-1.5928 -0.723999,-3.4752 -0.361999,-1.88239 -0.723999,-3.54759 -0.289599,-1.6652 -0.361999,-2.6788 -0.0724,1.0136 -0.434399,2.6788 -0.2896,1.6652 -0.651599,3.54759 -0.362,1.81 -0.723999,3.4752 -0.361999,1.5928 -0.579199,2.46159 l -6.950388,27.07756 H 54.000957 L 40.824179,240.56515 h 10.787582 l 6.588389,28.23596 q 0.4344,1.6652 0.941199,4.19919 0.506799,2.534 0.941198,5.06799 0.434399,2.534 0.651599,4.2716 0.2172,-1.81 0.651599,-4.2716 0.434399,-2.53399 0.868798,-4.85079 0.5068,-2.3892 0.868799,-3.69239 l 7.529588,-28.95996 h 10.353182 l 7.529588,28.95996 q 0.361999,1.30319 0.796398,3.69239 0.5068,2.3168 0.941199,4.85079 0.434399,2.534 0.651599,4.2716 0.217199,-1.81 0.651599,-4.2716 0.434399,-2.53399 0.941198,-4.99559 0.579199,-2.53399 0.941199,-4.27159 l 6.588388,-28.23596 z"
         style="font-style:normal;font-variant:normal;font-weight:bold;font-stretch:normal;font-size:72.39987946px;font-family:'Noto Sans';-inkscape-font-specification:'Noto Sans, Bold';font-variant-ligatures:normal;font-variant-caps:normal;font-variant-numeric:normal;font-feature-settings:normal;text-align:center;writing-mode:lr-tb;text-anchor:middle;fill:#ffffff;fill-opacity:1;stroke-width:4.52499247"
         id="path835"
         inkscape:connector-curvature="0" />
      <path
         d="m 146.14677,292.25867 -3.76479,-12.30798 h -18.82397 l -3.7648,12.30798 h -11.80118 l 18.24477,-51.91071 h 13.39398 l 18.31717,51.91071 z m -6.37119,-21.50277 -3.76479,-12.01838 q -0.362,-1.23079 -0.9412,-3.11319 -0.5792,-1.8824 -1.1584,-3.83719 -0.5792,-1.9548 -0.9412,-3.4028 -0.362,1.448 -1.0136,3.62 -0.5792,2.09959 -1.15839,4.05439 -0.5068,1.8824 -0.7964,2.67879 l -3.6924,12.01838 z"
         style="font-style:normal;font-variant:normal;font-weight:bold;font-stretch:normal;font-size:72.39987946px;font-family:'Noto Sans';-inkscape-font-specification:'Noto Sans, Bold';font-variant-ligatures:normal;font-variant-caps:normal;font-variant-numeric:normal;font-feature-settings:normal;text-align:center;writing-mode:lr-tb;text-anchor:middle;fill:#ffffff;fill-opacity:1;stroke-width:4.52499247"
         id="path837"
         inkscape:connector-curvature="0" />
      <path
         d="m 183.75512,292.25867 h -23.52996 v -6.22639 l 6.29879,-2.896 v -33.44874 l -6.29879,-2.896 v -6.22639 h 23.52996 v 6.22639 l -6.29879,2.896 v 33.44874 l 6.29879,2.896 z"
         style="font-style:normal;font-variant:normal;font-weight:bold;font-stretch:normal;font-size:72.39987946px;font-family:'Noto Sans';-inkscape-font-specification:'Noto Sans, Bold';font-variant-ligatures:normal;font-variant-caps:normal;font-variant-numeric:normal;font-feature-settings:normal;text-align:center;writing-mode:lr-tb;text-anchor:middle;fill:#ffffff;fill-opacity:1;stroke-width:4.52499247"
         id="path839"
         inkscape:connector-curvature="0" />
      <path
         d="m 212.4741,292.25867 h -10.93238 v -42.57113 h -14.04557 v -9.12239 h 39.02353 v 9.12239 H 212.4741 Z"
         style="font-style:normal;font-variant:normal;font-weight:bold;font-stretch:normal;font-size:72.39987946px;font-family:'Noto Sans';-inkscape-font-specification:'Noto Sans, Bold';font-variant-ligatures:normal;font-variant-caps:normal;font-variant-numeric:normal;font-feature-settings:normal;text-align:center;writing-mode:lr-tb;text-anchor:middle;fill:#ffffff;fill-opacity:1;stroke-width:4.52499247"
         id="path841"
         inkscape:connector-curvature="0" />
    </g>
  </g>
</svg>
