<?xml version="1.0" encoding="UTF-8" standalone="no"?>
<!-- Created with Inkscape (http://www.inkscape.org/) -->

<svg
   xmlns:dc="http://purl.org/dc/elements/1.1/"
   xmlns:cc="http://creativecommons.org/ns#"
   xmlns:rdf="http://www.w3.org/1999/02/22-rdf-syntax-ns#"
   xmlns:svg="http://www.w3.org/2000/svg"
   xmlns="http://www.w3.org/2000/svg"
   xmlns:sodipodi="http://sodipodi.sourceforge.net/DTD/sodipodi-0.dtd"
   xmlns:inkscape="http://www.inkscape.org/namespaces/inkscape"
   width="400"
   height="224"
   viewBox="0 0 105.83333 59.266668"
   version="1.1"
   id="svg8"
   inkscape:version="0.92.3 (2405546, 2018-03-11)"
   sodipodi:docname="Please_Wait.svg"
   inkscape:export-filename="/home/stuart/Data/Projects/Code/Godot/Projects/Godot_Sonic_Engine/Resources/Raw/Please_Wait.svg.png"
   inkscape:export-xdpi="384"
   inkscape:export-ydpi="384">
  <title
     id="title10">Please Wait (Godot Sonic Engine)</title>
  <defs
     id="defs2" />
  <sodipodi:namedview
     id="base"
     pagecolor="#ffffff"
     bordercolor="#666666"
     borderopacity="1.0"
     inkscape:pageopacity="0.0"
     inkscape:pageshadow="2"
     inkscape:zoom="3.5552542"
     inkscape:cx="198.99567"
     inkscape:cy="111.11342"
     inkscape:document-units="px"
     inkscape:current-layer="layer1"
     showgrid="false"
     units="px"
     borderlayer="true"
     inkscape:window-width="1920"
     inkscape:window-height="1001"
     inkscape:window-x="0"
     inkscape:window-y="27"
     inkscape:window-maximized="1" />
  <metadata
     id="metadata5">
    <rdf:RDF>
      <cc:Work
         rdf:about="">
        <dc:format>image/svg+xml</dc:format>
        <dc:type
           rdf:resource="http://purl.org/dc/dcmitype/StillImage" />
        <dc:title>Please Wait (Godot Sonic Engine)</dc:title>
        <dc:creator>
          <cc:Agent>
            <dc:title>Stuart &quot;Sslaxx&quot; Moore</dc:title>
          </cc:Agent>
        </dc:creator>
      </cc:Work>
    </rdf:RDF>
  </metadata>
  <g
     inkscape:label="Layer 1"
     inkscape:groupmode="layer"
     id="layer1"
     transform="translate(0,-237.73331)">
    <g
       id="Please_Wait"
       transform="translate(9.285714e-7,3.2e-6)">
      <g
         id="Please">
        <path
           inkscape:connector-curvature="0"
           id="path11"
           style="font-style:normal;font-variant:normal;font-weight:bold;font-stretch:normal;font-size:25.39999962px;line-height:1;font-family:'Tiresias Infofont';-inkscape-font-specification:'Tiresias Infofont Bold';text-align:center;letter-spacing:0px;word-spacing:0px;text-anchor:middle;fill:#c0c0c0;fill-opacity:1;stroke:#606060;stroke-width:0.26458332;stroke-miterlimit:4;stroke-dasharray:none;stroke-opacity:1"
           d="m 15.374771,245.86097 h 5.283398 q 6.796485,0 6.796485,5.68028 0,5.68027 -6.746875,5.68027 h -1.947168 v 7.10654 h -3.38584 z m 3.38584,2.71612 v 5.92832 h 1.996777 q 3.286621,0 3.286621,-2.96416 0,-2.96416 -3.286621,-2.96416 z" />
        <path
           inkscape:connector-curvature="0"
           id="path13"
           style="font-style:normal;font-variant:normal;font-weight:bold;font-stretch:normal;font-size:25.39999962px;line-height:1;font-family:'Tiresias Infofont';-inkscape-font-specification:'Tiresias Infofont Bold';text-align:center;letter-spacing:0px;word-spacing:0px;text-anchor:middle;fill:#c0c0c0;fill-opacity:1;stroke:#606060;stroke-width:0.26458332;stroke-miterlimit:4;stroke-dasharray:none;stroke-opacity:1"
           d="m 36.161099,261.8476 0.830957,2.1332 q -1.42627,0.62012 -2.902149,0.62012 -2.133203,0 -2.939355,-1.19063 -0.669727,-0.97978 -0.669727,-3.24941 v -15.42852 h 3.261817 v 14.8332 q 0,1.40147 0.223242,1.89756 0.285254,0.63252 1.116211,0.63252 0.471289,0 1.079004,-0.24804 z" />
        <path
           inkscape:connector-curvature="0"
           id="path15"
           style="font-style:normal;font-variant:normal;font-weight:bold;font-stretch:normal;font-size:25.39999962px;line-height:1;font-family:'Tiresias Infofont';-inkscape-font-specification:'Tiresias Infofont Bold';text-align:center;letter-spacing:0px;word-spacing:0px;text-anchor:middle;fill:#c0c0c0;fill-opacity:1;stroke:#606060;stroke-width:0.26458332;stroke-miterlimit:4;stroke-dasharray:none;stroke-opacity:1"
           d="m 48.178969,260.49574 1.277442,1.78594 q -2.418457,2.31924 -5.481836,2.31924 -2.889746,0 -4.613672,-2.13321 -1.599902,-1.97197 -1.599902,-4.93613 0,-2.86494 1.525488,-4.86172 1.674316,-2.18281 4.464844,-2.18281 3.522265,0 5.122167,3.28662 0.855762,1.76113 0.855762,4.56406 h -8.545215 q 0.136426,3.85713 3.175,3.85713 1.736329,0 3.819922,-1.69912 z m -6.920507,-4.45244 h 4.998144 q -0.334863,-3.1626 -2.505273,-3.1626 -2.182813,0 -2.492871,3.1626 z" />
        <path
           inkscape:connector-curvature="0"
           id="path17"
           style="font-style:normal;font-variant:normal;font-weight:bold;font-stretch:normal;font-size:25.39999962px;line-height:1;font-family:'Tiresias Infofont';-inkscape-font-specification:'Tiresias Infofont Bold';text-align:center;letter-spacing:0px;word-spacing:0px;text-anchor:middle;fill:#c0c0c0;fill-opacity:1;stroke:#606060;stroke-width:0.26458332;stroke-miterlimit:4;stroke-dasharray:none;stroke-opacity:1"
           d="m 54.640589,253.61244 -1.091406,-2.22002 q 2.071191,-0.94258 4.378027,-0.94258 3.410644,0 4.440039,2.19522 0.58291,1.24023 0.58291,3.49746 v 8.18554 h -3.175 v -1.00459 q -1.227832,1.26504 -3.175,1.26504 -2.145605,0 -3.410644,-1.20302 -1.302246,-1.22784 -1.302246,-3.34864 0,-2.93935 3.150195,-3.85713 1.438672,-0.42168 3.261816,-0.42168 0.768946,0 1.401465,0.0496 0,-2.08359 -0.905371,-2.57968 -0.496094,-0.27286 -1.42627,-0.27286 -1.37666,0 -2.728515,0.65733 z m 5.060156,7.20576 v -2.80293 q -0.42168,-0.0744 -0.967383,-0.0744 -3.807519,0 -3.807519,2.30683 0,0.95498 0.719336,1.46348 0.632519,0.45889 1.624707,0.45889 1.699121,0 2.430859,-1.35186 z" />
        <path
           inkscape:connector-curvature="0"
           id="path19"
           style="font-style:normal;font-variant:normal;font-weight:bold;font-stretch:normal;font-size:25.39999962px;line-height:1;font-family:'Tiresias Infofont';-inkscape-font-specification:'Tiresias Infofont Bold';text-align:center;letter-spacing:0px;word-spacing:0px;text-anchor:middle;fill:#c0c0c0;fill-opacity:1;stroke:#606060;stroke-width:0.26458332;stroke-miterlimit:4;stroke-dasharray:none;stroke-opacity:1"
           d="m 65.455434,263.17465 1.153418,-2.26963 q 2.257227,1.27744 4.278809,1.27744 2.033984,0 2.033984,-1.5751 0,-0.76894 -0.892969,-1.24023 -0.347265,-0.18604 -1.562695,-0.54571 -3.075781,-0.91777 -3.906738,-2.22002 -0.496094,-0.76894 -0.496094,-1.95957 0,-2.51767 2.455664,-3.60908 1.227832,-0.5457 2.902148,-0.5457 2.05879,0 4.39043,1.27744 l -1.029394,2.18281 q -1.872754,-1.04179 -3.361036,-1.04179 -1.996777,0 -1.996777,1.50068 0,0.68213 0.868164,1.10381 0.322461,0.16123 2.244824,0.80615 1.240235,0.42168 1.810743,0.71934 1.996777,1.0542 1.996777,3.24941 0,2.6293 -2.59209,3.77031 -1.240234,0.54571 -2.827734,0.54571 -2.740918,0 -5.469434,-1.42627 z" />
        <path
           inkscape:connector-curvature="0"
           id="path21"
           style="font-style:normal;font-variant:normal;font-weight:bold;font-stretch:normal;font-size:25.39999962px;line-height:1;font-family:'Tiresias Infofont';-inkscape-font-specification:'Tiresias Infofont Bold';text-align:center;letter-spacing:0px;word-spacing:0px;text-anchor:middle;fill:#c0c0c0;fill-opacity:1;stroke:#606060;stroke-width:0.26458332;stroke-miterlimit:4;stroke-dasharray:none;stroke-opacity:1"
           d="m 88.908267,260.49574 1.277441,1.78594 q -2.418457,2.31924 -5.481836,2.31924 -2.889746,0 -4.613671,-2.13321 -1.599903,-1.97197 -1.599903,-4.93613 0,-2.86494 1.525489,-4.86172 1.674316,-2.18281 4.464843,-2.18281 3.522266,0 5.122168,3.28662 0.855762,1.76113 0.855762,4.56406 h -8.545215 q 0.136426,3.85713 3.175,3.85713 1.736328,0 3.819922,-1.69912 z m -6.920508,-4.45244 h 4.998145 q -0.334864,-3.1626 -2.505274,-3.1626 -2.182812,0 -2.492871,3.1626 z" />
      </g>
      <g
         id="Wait">
        <path
           inkscape:connector-curvature="0"
           id="path23"
           style="font-style:normal;font-variant:normal;font-weight:bold;font-stretch:normal;font-size:25.39999962px;line-height:1;font-family:'Tiresias Infofont';-inkscape-font-specification:'Tiresias Infofont Bold';text-align:center;letter-spacing:0px;word-spacing:0px;text-anchor:middle;fill:#c0c0c0;fill-opacity:1;stroke:#606060;stroke-width:0.26458332;stroke-miterlimit:4;stroke-dasharray:none;stroke-opacity:1"
           d="m 40.266274,289.72806 -3.12539,-9.43818 -3.112988,9.43818 H 30.71647 l -4.725293,-18.46709 h 3.460254 l 3.162597,13.60537 3.22461,-9.77304 h 2.629297 l 3.212207,9.79785 3.423046,-13.63018 h 3.187403 l -4.700488,18.46709 z" />
        <path
           inkscape:connector-curvature="0"
           id="path25"
           style="font-style:normal;font-variant:normal;font-weight:bold;font-stretch:normal;font-size:25.39999962px;line-height:1;font-family:'Tiresias Infofont';-inkscape-font-specification:'Tiresias Infofont Bold';text-align:center;letter-spacing:0px;word-spacing:0px;text-anchor:middle;fill:#c0c0c0;fill-opacity:1;stroke:#606060;stroke-width:0.26458332;stroke-miterlimit:4;stroke-dasharray:none;stroke-opacity:1"
           d="m 51.068715,279.01244 -1.091406,-2.22002 q 2.071191,-0.94258 4.378027,-0.94258 3.410645,0 4.440039,2.19522 0.58291,1.24023 0.58291,3.49746 v 8.18554 h -3.175 v -1.00459 q -1.227832,1.26504 -3.174999,1.26504 -2.145606,0 -3.410645,-1.20302 -1.302246,-1.22784 -1.302246,-3.34864 0,-2.93935 3.150195,-3.85713 1.438672,-0.42168 3.261817,-0.42168 0.768945,0 1.401464,0.0496 0,-2.08359 -0.905371,-2.57968 -0.496093,-0.27286 -1.426269,-0.27286 -1.37666,0 -2.728516,0.65733 z m 5.060156,7.20576 v -2.80293 q -0.421679,-0.0744 -0.967382,-0.0744 -3.80752,0 -3.80752,2.30683 0,0.95498 0.719336,1.46348 0.63252,0.45889 1.624707,0.45889 1.699121,0 2.430859,-1.35186 z" />
        <path
           inkscape:connector-curvature="0"
           id="path27"
           style="font-style:normal;font-variant:normal;font-weight:bold;font-stretch:normal;font-size:25.39999962px;line-height:1;font-family:'Tiresias Infofont';-inkscape-font-specification:'Tiresias Infofont Bold';text-align:center;letter-spacing:0px;word-spacing:0px;text-anchor:middle;fill:#c0c0c0;fill-opacity:1;stroke:#606060;stroke-width:0.26458332;stroke-miterlimit:4;stroke-dasharray:none;stroke-opacity:1"
           d="m 66.670864,276.1599 v 13.56816 H 63.409047 V 276.1599 Z m 0,-2.35645 h -3.261817 v -3.67109 h 3.261817 z" />
        <path
           inkscape:connector-curvature="0"
           id="path29"
           style="font-style:normal;font-variant:normal;font-weight:bold;font-stretch:normal;font-size:25.39999962px;line-height:1;font-family:'Tiresias Infofont';-inkscape-font-specification:'Tiresias Infofont Bold';text-align:center;letter-spacing:0px;word-spacing:0px;text-anchor:middle;fill:#c0c0c0;fill-opacity:1;stroke:#606060;stroke-width:0.26458332;stroke-miterlimit:4;stroke-dasharray:none;stroke-opacity:1"
           d="m 78.192641,287.02435 0.818555,2.1208 q -1.661914,0.85577 -3.633887,0.85577 -2.54248,0 -3.237012,-1.71153 -0.396875,-0.97978 -0.396875,-2.72851 v -6.93291 h -2.455664 v -2.46807 h 2.455664 v -4.89893 h 3.261817 v 4.89893 h 3.286621 v 2.46807 h -3.286621 v 6.33759 q 0,1.21543 0.136425,1.64952 0.272852,0.88056 1.190625,0.88056 0.768946,0 1.860352,-0.47129 z" />
      </g>
    </g>
  </g>
</svg>
