<?xml version="1.0" encoding="UTF-8" standalone="no"?>
<!-- Created with Inkscape (http://www.inkscape.org/) -->

<svg
   xmlns:dc="http://purl.org/dc/elements/1.1/"
   xmlns:cc="http://creativecommons.org/ns#"
   xmlns:rdf="http://www.w3.org/1999/02/22-rdf-syntax-ns#"
   xmlns:svg="http://www.w3.org/2000/svg"
   xmlns="http://www.w3.org/2000/svg"
   xmlns:sodipodi="http://sodipodi.sourceforge.net/DTD/sodipodi-0.dtd"
   xmlns:inkscape="http://www.inkscape.org/namespaces/inkscape"
   version="1.1"
   id="svg2"
   width="16"
   height="16"
   viewBox="0 0 16 16"
   sodipodi:docname="sonic_head.svg"
   inkscape:version="0.92.3 (2405546, 2018-03-11)">
  <metadata
     id="metadata8">
    <rdf:RDF>
      <cc:Work
         rdf:about="">
        <dc:format>image/svg+xml</dc:format>
        <dc:type
           rdf:resource="http://purl.org/dc/dcmitype/StillImage" />
        <dc:title></dc:title>
      </cc:Work>
    </rdf:RDF>
  </metadata>
  <defs
     id="defs6" />
  <sodipodi:namedview
     pagecolor="#ffffff"
     bordercolor="#666666"
     borderopacity="1"
     objecttolerance="10"
     gridtolerance="10"
     guidetolerance="10"
     inkscape:pageopacity="0"
     inkscape:pageshadow="2"
     inkscape:window-width="1920"
     inkscape:window-height="1001"
     id="namedview4"
     showgrid="false"
     borderlayer="true"
     inkscape:zoom="49.916003"
     inkscape:cx="7.9959364"
     inkscape:cy="7.9715213"
     inkscape:window-x="0"
     inkscape:window-y="27"
     inkscape:window-maximized="1"
     inkscape:current-layer="svg2" />
  <g
     id="g34">
    <path
       id="path28"
       d="M 9.7128906 1.6484375 C 9.1659494 1.6444663 8.6153764 1.6769569 8.2226562 1.7480469 C 7.6188863 1.8573369 6.6583537 2.1274681 6.1523438 2.3300781 C 5.2884138 2.6760181 4.1779144 3.3955025 3.2714844 4.1953125 L 2.7421875 4.6621094 L 2.1914062 4.5351562 C 1.5263363 4.3813863 0.60557125 4.3198563 0.33203125 4.4101562 C 0.04322125 4.5054662 -0.022840625 4.645545 0.005859375 5.109375 C 0.034069375 5.565315 0.19769375 6.0759636 0.55859375 6.8398438 L 0.80664062 7.3671875 L 0.73242188 7.5976562 C 0.50516187 8.3036363 0.50338562 9.4385253 0.72851562 10.134766 C 0.86729563 10.563946 1.1120736 11.0869 1.3085938 11.375 C 1.3655436 11.45851 1.4119194 11.539387 1.4121094 11.554688 C 1.4122894 11.569987 1.3338281 11.611184 1.2363281 11.646484 C 0.76434818 11.817154 0.62119687 12.145706 0.90429688 12.410156 C 1.0826968 12.576806 1.5435456 12.716797 1.9160156 12.716797 C 2.1744956 12.716797 2.1965225 12.728331 2.5078125 13.019531 C 3.3416925 13.799591 4.1714594 14.227519 5.0371094 14.324219 C 5.5258394 14.378869 6.3288681 14.348966 6.7988281 14.259766 C 7.2721281 14.169986 7.6613056 14.053111 8.4160156 13.775391 C 9.3568056 13.429211 10.044737 13.318019 11.210938 13.318359 C 12.482717 13.318719 13.98158 13.614769 14.84375 14.037109 C 15.00389 14.115549 15.136672 14.175922 15.138672 14.169922 C 15.199922 14.010542 15.127343 13.490951 14.976562 13.019531 C 14.842713 12.601021 14.500366 11.949861 14.222656 11.582031 C 13.874476 11.120871 13.195729 10.663948 12.412109 10.361328 L 12.044922 10.21875 L 12.285156 10.042969 C 12.658336 9.7720687 13.398687 9.4393163 13.898438 9.3164062 C 14.267497 9.2256463 14.504623 9.2041719 15.189453 9.2011719 C 16.152623 9.1966619 16.093227 9.2445506 15.841797 8.6816406 C 15.400247 7.6931206 14.518998 6.7634886 13.580078 6.2929688 C 13.141348 6.0730987 12.465604 5.8861562 11.964844 5.8476562 C 11.680524 5.8258563 11.539062 5.7937531 11.539062 5.7519531 C 11.539062 5.6361031 12.201975 4.9753837 12.546875 4.7460938 C 12.735285 4.6208438 13.066393 4.446175 13.283203 4.359375 C 13.667903 4.205335 14.629972 3.961125 14.882812 3.953125 C 14.952433 3.950925 15.053675 3.9311031 15.109375 3.9082031 C 15.200435 3.8707331 15.174349 3.8308656 14.849609 3.5097656 C 14.486179 3.1503856 13.878354 2.7209906 13.365234 2.4628906 C 12.954854 2.2564706 11.844354 1.9030713 11.183594 1.7695312 C 10.804109 1.6928262 10.259832 1.6524087 9.7128906 1.6484375 z M 5.9179688 6.0527344 C 6.0609005 6.046693 6.1993475 6.0621719 6.328125 6.0996094 C 6.949635 6.2802794 7.41089 6.9622931 7.59375 7.9707031 C 7.67719 8.4310431 7.6638125 9.6315189 7.5703125 10.105469 C 7.4043825 10.946379 7.0012238 11.512964 6.3398438 11.839844 C 5.9961137 12.009754 5.9261887 12.026116 5.4492188 12.041016 C 5.1644987 12.049516 4.9087594 12.048009 4.8808594 12.037109 C 4.5966294 11.925959 3.5763738 11.695453 3.3398438 11.689453 C 3.0424838 11.681303 3.0388187 11.678154 3.0742188 11.552734 C 3.1369887 11.330354 3.0991719 10.57741 3.0136719 10.34375 C 2.9690719 10.22189 2.9316406 10.111963 2.9316406 10.101562 C 2.9316406 10.091563 3.0094156 10.083984 3.1035156 10.083984 C 3.1975756 10.083984 3.2958656 10.054331 3.3222656 10.019531 C 3.3487456 9.9847214 3.3982938 9.744395 3.4335938 9.484375 C 3.6177238 8.128675 3.997525 7.2315794 4.640625 6.6308594 C 5.018895 6.2775344 5.4891736 6.0708586 5.9179688 6.0527344 z M 1.5722656 7.5625 C 1.7631756 7.53936 1.849295 7.6792756 2.015625 8.2910156 C 2.099545 8.5996256 2.2144844 8.9706044 2.2714844 9.1152344 C 2.3951844 9.4291044 2.3952813 9.4257813 2.3007812 9.4257812 C 2.1554013 9.4257814 2.0615 9.6604216 2.0625 10.019531 C 2.06425 10.560841 2.2160756 11.084565 2.4785156 11.453125 C 2.5578156 11.564505 2.5664719 11.603516 2.5136719 11.603516 C 2.4745719 11.603516 2.433475 11.594484 2.421875 11.583984 C 2.410265 11.573484 2.2651394 11.550703 2.0996094 11.533203 C 1.9340694 11.515703 1.7786063 11.4722 1.7539062 11.4375 C 1.7292362 11.40282 1.6204988 11.188941 1.5117188 10.962891 C 1.2673487 10.455091 1.1638531 9.9843056 1.1269531 9.1972656 C 1.0823631 8.2453156 1.2581256 7.6006 1.5722656 7.5625 z "
       style="fill:#0e3293;fill-opacity:1;stroke-width:0.05063619" />
    <path
       id="path24"
       d="m 6.2886872,10.948704 c -0.31828,-0.19918 -0.51281,-0.77699 -0.55596,-1.6514099 -0.0396,-0.80173 0.0424,-0.984 0.47309,-1.05183 0.45754,-0.0721 0.78106,0.56074 0.85675,1.67581 0.0512,0.7544099 -0.0658,1.0474699 -0.44051,1.1035599 -0.11811,0.0177 -0.22101,-0.006 -0.33337,-0.0761 z"
       style="fill:#0e3293;fill-opacity:1;stroke-width:0.05063619" />
  </g>
</svg>
